<?xml version="1.0" encoding="UTF-8"?>
<svg id="_レイヤー_2" data-name="レイヤー 2" xmlns="http://www.w3.org/2000/svg" viewBox="0 0 32 32">
  <defs>
    <style>
      .cls-1 {
        fill: #231815;
      }

      .cls-2 {
        fill: none;
      }
    </style>
  </defs>
  <g id="_レイヤー_1-2" data-name="レイヤー 1">
    <g>
      <path class="cls-1" d="M22.65,2.644v13.003c-.071,3.861-.88,7.72-4.049,9.839-.117.078-.498.371-.621.444.087-.111.432-.443.512-.558,1.085-1.574,1.485-3.522,1.214-5.303-.478-3.143-2.549-4.88-6.477-5.936-3.095-.815-4.527-1.578-4.823-3.523-.223-1.467.673-3.226,3.397-3.64.235-.036.463-.061.686-.077.008,0,.015,0,.023,0,2.075,0,4.019.583,5.571,1.737v-3.867c-1.691-.846-3.587-1.322-5.571-1.322C5.613,3.44,0,9.053,0,15.952c0,.987.111,1.958.317,2.899.016.086.03.171.048.258,1.78,8.341,10.002,11.488,17.274,9.812,6.888-2.157,9.807-7.106,10.46-12.92h3.901L22.65,2.644ZM4.956,10.908c.006.074-.036.275-.028.35.009.091.021.182.035.273.474,3.113,2.877,4.828,6.498,5.686,2.897.723,4.246,1.743,4.542,3.688.314,2.065-1.034,3.699-3.758,4.114-2.381.12-4.33-.65-5.98-2.218-1.788-1.7-2.814-4.197-2.814-6.849,0-1.712.479-3.313,1.307-4.68.048-.08.146-.286.197-.364Z"/>
      <rect class="cls-2" width="32" height="32"/>
    </g>
  </g>
</svg>